<svg width="131" height="31" viewBox="0 0 131 31" fill="none" xmlns="http://www.w3.org/2000/svg">
<path d="M47.9453 16.4219C48.7259 16.7728 49.3346 17.2705 49.7715 17.915C50.2083 18.5524 50.4268 19.2936 50.4268 20.1387C50.4268 21.4707 49.9613 22.5306 49.0303 23.3184C48.0993 24.1061 46.821 24.5 45.1953 24.5H37.4287V9.0957H44.7764C46.2874 9.0957 47.5085 9.47884 48.4395 10.2451C49.3704 11.0042 49.8431 11.9925 49.8574 13.21C49.8574 14.6637 49.2201 15.7344 47.9453 16.4219ZM44.7549 11.6953H40.3828V15.498H44.8193C45.4352 15.498 45.9365 15.3118 46.3232 14.9395C46.7171 14.5671 46.9069 14.1087 46.8926 13.5645C46.8926 13.0202 46.6921 12.569 46.291 12.2109C45.8971 11.8529 45.3851 11.681 44.7549 11.6953ZM45.1738 21.8789C45.8613 21.8789 46.4092 21.6891 46.8174 21.3096C47.2327 20.93 47.4404 20.4466 47.4404 19.8594C47.4404 19.2865 47.2363 18.8138 46.8281 18.4414C46.4271 18.069 45.8828 17.8828 45.1953 17.8828H40.3828V21.8789H45.1738ZM58.0322 24.8115C56.2419 24.8115 54.7845 24.2744 53.6602 23.2002C52.543 22.1188 51.9844 20.6973 51.9844 18.9355C51.9844 17.2454 52.5215 15.8454 53.5957 14.7354C54.6771 13.6182 56.0807 13.0596 57.8066 13.0596C59.5827 13.0596 60.9827 13.6038 62.0068 14.6924C63.0381 15.7738 63.5537 17.138 63.5537 18.7852C63.5537 19.2363 63.5322 19.5801 63.4893 19.8164H54.8418C54.9421 20.5755 55.2643 21.1878 55.8086 21.6533C56.3529 22.1117 57.1084 22.3408 58.0752 22.3408C59.3643 22.3408 60.2666 21.8503 60.7822 20.8691L63.4033 21.6426C63.0381 22.4805 62.3864 23.2181 61.4482 23.8555C60.5173 24.4928 59.3786 24.8115 58.0322 24.8115ZM54.8418 17.9902H60.7178C60.6462 17.2884 60.349 16.7012 59.8262 16.2285C59.3034 15.7559 58.623 15.5195 57.7852 15.5195C56.9759 15.5195 56.3027 15.763 55.7656 16.25C55.2357 16.737 54.9277 17.3171 54.8418 17.9902ZM68.7637 21.7285H76.4336V24.5H65.7451V9.0957H68.7637V21.7285ZM81.085 11.3193C80.7484 11.6416 80.3366 11.8027 79.8496 11.8027C79.3698 11.8027 78.9616 11.638 78.625 11.3086C78.2884 10.9792 78.1201 10.5745 78.1201 10.0947C78.1201 9.62207 78.2884 9.22461 78.625 8.90234C78.9616 8.58008 79.3698 8.41895 79.8496 8.41895C80.3366 8.41895 80.7484 8.58008 81.085 8.90234C81.4215 9.22461 81.5898 9.62207 81.5898 10.0947C81.5898 10.5817 81.4215 10.9899 81.085 11.3193ZM78.3564 24.5V13.3711H81.2783V24.5H78.3564ZM92.5791 13.3711H95.5117V29.1191H92.5791V23.1357C91.7126 24.2529 90.5202 24.8115 89.002 24.8115C87.4479 24.8115 86.141 24.2493 85.0811 23.125C84.0283 22.0007 83.502 20.6042 83.502 18.9355C83.502 17.2454 84.0283 15.8454 85.0811 14.7354C86.141 13.6182 87.4479 13.0596 89.002 13.0596C90.5273 13.0596 91.7197 13.611 92.5791 14.7139V13.3711ZM89.5068 22.2119C90.402 22.2119 91.154 21.9004 91.7627 21.2773C92.3714 20.6543 92.6758 19.8665 92.6758 18.9141C92.6758 17.9759 92.3714 17.1989 91.7627 16.583C91.154 15.9671 90.402 15.6592 89.5068 15.6592C88.5973 15.6592 87.849 15.9635 87.2617 16.5723C86.6745 17.181 86.3809 17.9616 86.3809 18.9141C86.3809 19.8809 86.6745 20.6722 87.2617 21.2881C87.849 21.904 88.5973 22.2119 89.5068 22.2119ZM106.211 13.3711H109.122V24.5H106.211V23.0928C105.344 24.2386 104.156 24.8115 102.645 24.8115C101.205 24.8115 100.113 24.3711 99.3682 23.4902C98.6234 22.6094 98.251 21.3991 98.251 19.8594V13.3711H101.151V19.3115C101.151 20.1781 101.352 20.862 101.753 21.3633C102.161 21.8574 102.752 22.1045 103.525 22.1045C104.349 22.1045 105.001 21.8109 105.48 21.2236C105.967 20.6364 106.211 19.8451 106.211 18.8496V13.3711ZM114.687 11.3193C114.35 11.6416 113.938 11.8027 113.451 11.8027C112.971 11.8027 112.563 11.638 112.227 11.3086C111.89 10.9792 111.722 10.5745 111.722 10.0947C111.722 9.62207 111.89 9.22461 112.227 8.90234C112.563 8.58008 112.971 8.41895 113.451 8.41895C113.938 8.41895 114.35 8.58008 114.687 8.90234C115.023 9.22461 115.191 9.62207 115.191 10.0947C115.191 10.5817 115.023 10.9899 114.687 11.3193ZM111.958 24.5V13.3711H114.88V24.5H111.958ZM126.181 8.44043H129.113V24.5H126.181V23.1357C125.314 24.2529 124.122 24.8115 122.604 24.8115C121.049 24.8115 119.743 24.2493 118.683 23.125C117.63 22.0007 117.104 20.6042 117.104 18.9355C117.104 17.2454 117.63 15.8454 118.683 14.7354C119.743 13.6182 121.049 13.0596 122.604 13.0596C124.129 13.0596 125.321 13.611 126.181 14.7139V8.44043ZM123.108 22.2119C124.004 22.2119 124.756 21.9004 125.364 21.2773C125.973 20.6543 126.277 19.8665 126.277 18.9141C126.277 17.9759 125.973 17.1989 125.364 16.583C124.756 15.9671 124.004 15.6592 123.108 15.6592C122.199 15.6592 121.451 15.9635 120.863 16.5723C120.276 17.181 119.982 17.9616 119.982 18.9141C119.982 19.8809 120.276 20.6722 120.863 21.2881C121.451 21.904 122.199 22.2119 123.108 22.2119Z" fill="white"/>
<ellipse cx="10.2847" cy="7.88709" rx="2.92113" ry="3.58685" fill="#F5BC39"/>
<ellipse cx="17.6461" cy="7.88709" rx="2.92113" ry="3.58685" fill="#F5BC39"/>
<ellipse cx="23.1748" cy="13.1215" rx="2.92113" ry="3.58685" fill="#F5BC39"/>
<ellipse cx="4.82549" cy="13.1215" rx="2.92113" ry="3.58685" fill="#F5BC39"/>
<path d="M9.99505 19.6643L13.9779 12.9939L17.9766 19.6548C19.8377 22.7551 17.6046 26.7002 13.9887 26.7002C10.3777 26.7002 8.14384 22.7647 9.99505 19.6643Z" fill="#F5BC39"/>
</svg>
