<svg width="131" height="30" viewBox="0 0 131 30" fill="none" xmlns="http://www.w3.org/2000/svg">
<path d="M47.9453 15.9219C48.7259 16.2728 49.3346 16.7705 49.7715 17.415C50.2083 18.0524 50.4268 18.7936 50.4268 19.6387C50.4268 20.9707 49.9613 22.0306 49.0303 22.8184C48.0993 23.6061 46.821 24 45.1953 24H37.4287V8.5957H44.7764C46.2874 8.5957 47.5085 8.97884 48.4395 9.74512C49.3704 10.5042 49.8431 11.4925 49.8574 12.71C49.8574 14.1637 49.2201 15.2344 47.9453 15.9219ZM44.7549 11.1953H40.3828V14.998H44.8193C45.4352 14.998 45.9365 14.8118 46.3232 14.4395C46.7171 14.0671 46.9069 13.6087 46.8926 13.0645C46.8926 12.5202 46.6921 12.069 46.291 11.7109C45.8971 11.3529 45.3851 11.181 44.7549 11.1953ZM45.1738 21.3789C45.8613 21.3789 46.4092 21.1891 46.8174 20.8096C47.2327 20.43 47.4404 19.9466 47.4404 19.3594C47.4404 18.7865 47.2363 18.3138 46.8281 17.9414C46.4271 17.569 45.8828 17.3828 45.1953 17.3828H40.3828V21.3789H45.1738ZM58.0322 24.3115C56.2419 24.3115 54.7845 23.7744 53.6602 22.7002C52.543 21.6188 51.9844 20.1973 51.9844 18.4355C51.9844 16.7454 52.5215 15.3454 53.5957 14.2354C54.6771 13.1182 56.0807 12.5596 57.8066 12.5596C59.5827 12.5596 60.9827 13.1038 62.0068 14.1924C63.0381 15.2738 63.5537 16.638 63.5537 18.2852C63.5537 18.7363 63.5322 19.0801 63.4893 19.3164H54.8418C54.9421 20.0755 55.2643 20.6878 55.8086 21.1533C56.3529 21.6117 57.1084 21.8408 58.0752 21.8408C59.3643 21.8408 60.2666 21.3503 60.7822 20.3691L63.4033 21.1426C63.0381 21.9805 62.3864 22.7181 61.4482 23.3555C60.5173 23.9928 59.3786 24.3115 58.0322 24.3115ZM54.8418 17.4902H60.7178C60.6462 16.7884 60.349 16.2012 59.8262 15.7285C59.3034 15.2559 58.623 15.0195 57.7852 15.0195C56.9759 15.0195 56.3027 15.263 55.7656 15.75C55.2357 16.237 54.9277 16.8171 54.8418 17.4902ZM68.7637 21.2285H76.4336V24H65.7451V8.5957H68.7637V21.2285ZM81.085 10.8193C80.7484 11.1416 80.3366 11.3027 79.8496 11.3027C79.3698 11.3027 78.9616 11.138 78.625 10.8086C78.2884 10.4792 78.1201 10.0745 78.1201 9.59473C78.1201 9.12207 78.2884 8.72461 78.625 8.40234C78.9616 8.08008 79.3698 7.91895 79.8496 7.91895C80.3366 7.91895 80.7484 8.08008 81.085 8.40234C81.4215 8.72461 81.5898 9.12207 81.5898 9.59473C81.5898 10.0817 81.4215 10.4899 81.085 10.8193ZM78.3564 24V12.8711H81.2783V24H78.3564ZM92.5791 12.8711H95.5117V28.6191H92.5791V22.6357C91.7126 23.7529 90.5202 24.3115 89.002 24.3115C87.4479 24.3115 86.141 23.7493 85.0811 22.625C84.0283 21.5007 83.502 20.1042 83.502 18.4355C83.502 16.7454 84.0283 15.3454 85.0811 14.2354C86.141 13.1182 87.4479 12.5596 89.002 12.5596C90.5273 12.5596 91.7197 13.111 92.5791 14.2139V12.8711ZM89.5068 21.7119C90.402 21.7119 91.154 21.4004 91.7627 20.7773C92.3714 20.1543 92.6758 19.3665 92.6758 18.4141C92.6758 17.4759 92.3714 16.6989 91.7627 16.083C91.154 15.4671 90.402 15.1592 89.5068 15.1592C88.5973 15.1592 87.849 15.4635 87.2617 16.0723C86.6745 16.681 86.3809 17.4616 86.3809 18.4141C86.3809 19.3809 86.6745 20.1722 87.2617 20.7881C87.849 21.404 88.5973 21.7119 89.5068 21.7119ZM106.211 12.8711H109.122V24H106.211V22.5928C105.344 23.7386 104.156 24.3115 102.645 24.3115C101.205 24.3115 100.113 23.8711 99.3682 22.9902C98.6234 22.1094 98.251 20.8991 98.251 19.3594V12.8711H101.151V18.8115C101.151 19.6781 101.352 20.362 101.753 20.8633C102.161 21.3574 102.752 21.6045 103.525 21.6045C104.349 21.6045 105.001 21.3109 105.48 20.7236C105.967 20.1364 106.211 19.3451 106.211 18.3496V12.8711ZM114.687 10.8193C114.35 11.1416 113.938 11.3027 113.451 11.3027C112.971 11.3027 112.563 11.138 112.227 10.8086C111.89 10.4792 111.722 10.0745 111.722 9.59473C111.722 9.12207 111.89 8.72461 112.227 8.40234C112.563 8.08008 112.971 7.91895 113.451 7.91895C113.938 7.91895 114.35 8.08008 114.687 8.40234C115.023 8.72461 115.191 9.12207 115.191 9.59473C115.191 10.0817 115.023 10.4899 114.687 10.8193ZM111.958 24V12.8711H114.88V24H111.958ZM126.181 7.94043H129.113V24H126.181V22.6357C125.314 23.7529 124.122 24.3115 122.604 24.3115C121.049 24.3115 119.743 23.7493 118.683 22.625C117.63 21.5007 117.104 20.1042 117.104 18.4355C117.104 16.7454 117.63 15.3454 118.683 14.2354C119.743 13.1182 121.049 12.5596 122.604 12.5596C124.129 12.5596 125.321 13.111 126.181 14.2139V7.94043ZM123.108 21.7119C124.004 21.7119 124.756 21.4004 125.364 20.7773C125.973 20.1543 126.277 19.3665 126.277 18.4141C126.277 17.4759 125.973 16.6989 125.364 16.083C124.756 15.4671 124.004 15.1592 123.108 15.1592C122.199 15.1592 121.451 15.4635 120.863 16.0723C120.276 16.681 119.982 17.4616 119.982 18.4141C119.982 19.3809 120.276 20.1722 120.863 20.7881C121.451 21.404 122.199 21.7119 123.108 21.7119Z" fill="black"/>
<ellipse cx="10.2847" cy="7.38709" rx="2.92113" ry="3.58685" fill="#F5BC39"/>
<ellipse cx="17.6461" cy="7.38709" rx="2.92113" ry="3.58685" fill="#F5BC39"/>
<ellipse cx="23.1748" cy="12.6215" rx="2.92113" ry="3.58685" fill="#F5BC39"/>
<ellipse cx="4.82549" cy="12.6215" rx="2.92113" ry="3.58685" fill="#F5BC39"/>
<path d="M9.99505 19.1643L13.9779 12.4939L17.9766 19.1548C19.8377 22.2551 17.6046 26.2002 13.9887 26.2002C10.3777 26.2002 8.14384 22.2647 9.99505 19.1643Z" fill="#F5BC39"/>
</svg>
